<mxfile host="www.draw.io" modified="2019-11-27T03:18:54.787Z" agent="Mozilla/5.0 (Windows NT 10.0; Win64; x64) AppleWebKit/537.36 (KHTML, like Gecko) Chrome/78.0.3904.108 Safari/537.36" etag="ZzE_deFY_ScU-0uSMaLf" version="12.3.1" type="github" pages="1">
  <diagram id="P6PIEcqKW-GrJOitVNYq" name="第 1 页">
    <mxGraphModel dx="1422" dy="713" grid="1" gridSize="10" guides="1" tooltips="1" connect="1" arrows="1" fold="1" page="1" pageScale="1" pageWidth="827" pageHeight="1169" math="0" shadow="0">
      <root>
        <mxCell id="0"/>
        <mxCell id="1" parent="0"/>
        <mxCell id="wCMyNv0TtZamz9aD3d7z-2" value="客户端" style="rounded=0;whiteSpace=wrap;html=1;" vertex="1" parent="1">
          <mxGeometry x="140" y="180" width="110" height="460" as="geometry"/>
        </mxCell>
        <mxCell id="wCMyNv0TtZamz9aD3d7z-3" value="服务端" style="rounded=0;whiteSpace=wrap;html=1;" vertex="1" parent="1">
          <mxGeometry x="520" y="180" width="110" height="460" as="geometry"/>
        </mxCell>
        <mxCell id="wCMyNv0TtZamz9aD3d7z-10" value="" style="endArrow=classic;html=1;exitX=1;exitY=0.135;exitDx=0;exitDy=0;exitPerimeter=0;entryX=-0.018;entryY=0.133;entryDx=0;entryDy=0;entryPerimeter=0;" edge="1" parent="1" source="wCMyNv0TtZamz9aD3d7z-2" target="wCMyNv0TtZamz9aD3d7z-3">
          <mxGeometry width="50" height="50" relative="1" as="geometry">
            <mxPoint x="340" y="310" as="sourcePoint"/>
            <mxPoint x="390" y="260" as="targetPoint"/>
          </mxGeometry>
        </mxCell>
        <mxCell id="wCMyNv0TtZamz9aD3d7z-11" value="第一次握手" style="text;html=1;align=center;verticalAlign=middle;resizable=0;points=[];;labelBackgroundColor=#ffffff;" vertex="1" connectable="0" parent="wCMyNv0TtZamz9aD3d7z-10">
          <mxGeometry x="-0.1792" relative="1" as="geometry">
            <mxPoint as="offset"/>
          </mxGeometry>
        </mxCell>
        <mxCell id="wCMyNv0TtZamz9aD3d7z-12" value="FIN=1，seq=u" style="text;html=1;strokeColor=none;fillColor=none;align=center;verticalAlign=middle;whiteSpace=wrap;rounded=0;" vertex="1" parent="1">
          <mxGeometry x="310" y="210" width="100" height="20" as="geometry"/>
        </mxCell>
        <mxCell id="wCMyNv0TtZamz9aD3d7z-13" value="" style="endArrow=classic;html=1;exitX=0.009;exitY=0.307;exitDx=0;exitDy=0;exitPerimeter=0;entryX=1.027;entryY=0.307;entryDx=0;entryDy=0;entryPerimeter=0;" edge="1" parent="1" source="wCMyNv0TtZamz9aD3d7z-3" target="wCMyNv0TtZamz9aD3d7z-2">
          <mxGeometry width="50" height="50" relative="1" as="geometry">
            <mxPoint x="370" y="400" as="sourcePoint"/>
            <mxPoint x="420" y="350" as="targetPoint"/>
          </mxGeometry>
        </mxCell>
        <mxCell id="wCMyNv0TtZamz9aD3d7z-14" value="第二次握手" style="text;html=1;align=center;verticalAlign=middle;resizable=0;points=[];;labelBackgroundColor=#ffffff;" vertex="1" connectable="0" parent="wCMyNv0TtZamz9aD3d7z-13">
          <mxGeometry x="0.1566" y="3" relative="1" as="geometry">
            <mxPoint as="offset"/>
          </mxGeometry>
        </mxCell>
        <mxCell id="wCMyNv0TtZamz9aD3d7z-15" value="ACK=1，ack=u+1，seq=v" style="text;html=1;strokeColor=none;fillColor=none;align=center;verticalAlign=middle;whiteSpace=wrap;rounded=0;" vertex="1" parent="1">
          <mxGeometry x="290" y="290" width="160" height="20" as="geometry"/>
        </mxCell>
        <mxCell id="wCMyNv0TtZamz9aD3d7z-16" value="" style="endArrow=classic;html=1;exitX=1.018;exitY=0.552;exitDx=0;exitDy=0;exitPerimeter=0;" edge="1" parent="1" source="wCMyNv0TtZamz9aD3d7z-2">
          <mxGeometry width="50" height="50" relative="1" as="geometry">
            <mxPoint x="290" y="470" as="sourcePoint"/>
            <mxPoint x="519" y="434" as="targetPoint"/>
          </mxGeometry>
        </mxCell>
        <mxCell id="wCMyNv0TtZamz9aD3d7z-17" value="第三次握手" style="text;html=1;align=center;verticalAlign=middle;resizable=0;points=[];;labelBackgroundColor=#ffffff;" vertex="1" connectable="0" parent="wCMyNv0TtZamz9aD3d7z-16">
          <mxGeometry x="-0.1385" y="-1" relative="1" as="geometry">
            <mxPoint as="offset"/>
          </mxGeometry>
        </mxCell>
        <mxCell id="wCMyNv0TtZamz9aD3d7z-18" value="FIN=1，ack=u+1,seq=w" style="text;html=1;strokeColor=none;fillColor=none;align=center;verticalAlign=middle;whiteSpace=wrap;rounded=0;" vertex="1" parent="1">
          <mxGeometry x="290" y="410" width="160" height="10" as="geometry"/>
        </mxCell>
        <mxCell id="wCMyNv0TtZamz9aD3d7z-19" value="" style="endArrow=classic;html=1;exitX=0;exitY=0.75;exitDx=0;exitDy=0;entryX=1;entryY=0.75;entryDx=0;entryDy=0;" edge="1" parent="1" source="wCMyNv0TtZamz9aD3d7z-3" target="wCMyNv0TtZamz9aD3d7z-2">
          <mxGeometry width="50" height="50" relative="1" as="geometry">
            <mxPoint x="360" y="550" as="sourcePoint"/>
            <mxPoint x="410" y="500" as="targetPoint"/>
          </mxGeometry>
        </mxCell>
        <mxCell id="wCMyNv0TtZamz9aD3d7z-20" value="第四次握手" style="text;html=1;align=center;verticalAlign=middle;resizable=0;points=[];;labelBackgroundColor=#ffffff;" vertex="1" connectable="0" parent="wCMyNv0TtZamz9aD3d7z-19">
          <mxGeometry x="0.0963" y="1" relative="1" as="geometry">
            <mxPoint as="offset"/>
          </mxGeometry>
        </mxCell>
        <mxCell id="wCMyNv0TtZamz9aD3d7z-21" value="ACK=1，ack=w+1,seq=u+1" style="text;html=1;strokeColor=none;fillColor=none;align=center;verticalAlign=middle;whiteSpace=wrap;rounded=0;" vertex="1" parent="1">
          <mxGeometry x="285" y="500" width="170" height="10" as="geometry"/>
        </mxCell>
      </root>
    </mxGraphModel>
  </diagram>
</mxfile>
